<?xml version="1.0" encoding="utf-8"?>
<!-- Generator: Adobe Illustrator 27.0.0, SVG Export Plug-In . SVG Version: 6.00 Build 0)  -->
<svg version="1.1" id="圖層_1" xmlns="http://www.w3.org/2000/svg" xmlns:xlink="http://www.w3.org/1999/xlink" x="0px" y="0px"
	 viewBox="0 0 56 56" style="enable-background:new 0 0 56 56;" xml:space="preserve">
<style type="text/css">
	.st0{fill:#5B5B5B;}
</style>
<path class="st0" d="M20,9h16c6.1,0,11,4.9,11,11v16c0,2.9-1.2,5.7-3.2,7.8C41.7,45.8,38.9,47,36,47H20c-6.1,0-11-4.9-11-11V20
	c0-2.9,1.2-5.7,3.2-7.8C14.3,10.2,17.1,9,20,9z M19.6,12.8c-1.8,0-3.6,0.7-4.8,2c-1.3,1.3-2,3-2,4.8v16.7c0,3.8,3.1,6.8,6.8,6.8
	h16.7c1.8,0,3.6-0.7,4.8-2c1.3-1.3,2-3,2-4.8V19.6c0-3.8-3.1-6.8-6.8-6.8H19.6z M38,15.6c0.6,0,1.2,0.3,1.7,0.7
	c0.4,0.4,0.7,1,0.7,1.7s-0.3,1.2-0.7,1.7c-0.4,0.4-1,0.7-1.7,0.7c-0.6,0-1.2-0.3-1.7-0.7c-0.4-0.4-0.7-1-0.7-1.7s0.3-1.2,0.7-1.7
	C36.7,15.9,37.3,15.6,38,15.6z M28,18.5c2.5,0,4.9,1,6.7,2.8c1.8,1.8,2.8,4.2,2.8,6.7s-1,4.9-2.8,6.7c-1.8,1.8-4.2,2.8-6.7,2.8
	s-4.9-1-6.7-2.8c-1.8-1.8-2.8-4.2-2.8-6.7s1-4.9,2.8-6.7C23.1,19.5,25.5,18.5,28,18.5z M28,22.3c-1.5,0-3,0.6-4,1.7
	c-1.1,1.1-1.7,2.5-1.7,4s0.6,3,1.7,4c1.1,1.1,2.5,1.7,4,1.7s3-0.6,4-1.7c1.1-1.1,1.7-2.5,1.7-4s-0.6-3-1.7-4
	C31,22.9,29.5,22.3,28,22.3z"/>
</svg>
