<?xml version="1.0" encoding="utf-8"?>
<!-- Generator: Adobe Illustrator 27.0.0, SVG Export Plug-In . SVG Version: 6.00 Build 0)  -->
<svg version="1.1" id="圖層_1" xmlns="http://www.w3.org/2000/svg" xmlns:xlink="http://www.w3.org/1999/xlink" x="0px" y="0px"
	 viewBox="0 0 56 56" style="enable-background:new 0 0 56 56;" xml:space="preserve">
<style type="text/css">
	.st0{fill-rule:evenodd;clip-rule:evenodd;fill:#5B5B5B;}
</style>
<path class="st0" d="M16,13h23v30H16V13z M13,13c0-1.7,1.3-3,3-3h23c1.7,0,3,1.3,3,3v30c0,1.7-1.3,3-3,3H16c-1.7,0-3-1.3-3-3V13z
	 M22,20c0,0.8-0.7,1.5-1.5,1.5S19,20.8,19,20s0.7-1.5,1.5-1.5S22,19.2,22,20z M22,27c0,0.8-0.7,1.5-1.5,1.5S19,27.8,19,27
	s0.7-1.5,1.5-1.5S22,26.2,22,27z M20.5,35.5c0.8,0,1.5-0.7,1.5-1.5s-0.7-1.5-1.5-1.5S19,33.2,19,34S19.7,35.5,20.5,35.5z M24,20
	c0-0.8,0.7-1.5,1.5-1.5h8c0.8,0,1.5,0.7,1.5,1.5s-0.7,1.5-1.5,1.5h-8C24.7,21.5,24,20.8,24,20z M25.5,25.5c-0.8,0-1.5,0.7-1.5,1.5
	s0.7,1.5,1.5,1.5h8c0.8,0,1.5-0.7,1.5-1.5s-0.7-1.5-1.5-1.5H25.5z M24,34c0-0.8,0.7-1.5,1.5-1.5h8c0.8,0,1.5,0.7,1.5,1.5
	s-0.7,1.5-1.5,1.5h-8C24.7,35.5,24,34.8,24,34z"/>
</svg>
